# xmcd
#
# Track frame offsets: 
#        150
#        17925
#        49920
#        66437
#        94822
#        115940
#        138930
#        152835
#        174802
#        192225
#        210565
#        234200
#        261227
#        282352
#        316800
#        344652
#
# Disc length: 4797 seconds
#
# Revision: 2
# Processed by: cddbd v1.5.2PL0 Copyright (c) Steve Scherf et al.
# Submitted via: ExactAudioCopyFreeDBPlugin 1.0
#
DISCID=e812bb10
DTITLE=Lenny Williams - Ultimate Collection
DYEAR=2001
DGENRE=R&B
TTITLE0=Love Hurt Me, Love Healed Me
TTITLE1='Cause I Love You
TTITLE2=So Very Hard To Go
TTITLE3=Just When We Start Makin' It
TTITLE4=Don't Change Horses (in the Middle of a Stream)
TTITLE5=What Is Hip?
TTITLE6=Since I Met You
TTITLE7=Doing the Loop De Loop
TTITLE8=Problem Solver
TTITLE9=I've Been Away From Love Too Long
TTITLE10=Let's Talk It Over
TTITLE11=Midnight Girl
TTITLE12=Look Up With Your Mind
TTITLE13=You Got Me Running
TTITLE14=Choosing You
TTITLE15=Shoo Doo Fu Fu Ooh!
EXTD=
EXTT0=
EXTT1=
EXTT2=
EXTT3=
EXTT4=
EXTT5=
EXTT6=
EXTT7=
EXTT8=
EXTT9=
EXTT10=
EXTT11=
EXTT12=
EXTT13=
EXTT14=
EXTT15=
PLAYORDER=
